<svg width="50" height="50" viewBox="0 0 50 50" fill="none" xmlns="http://www.w3.org/2000/svg">
<rect width="50" height="50" rx="7" fill="url(#paint0_linear_9413_24405)"/>
<path d="M25.0004 17.357C22.0043 17.357 19.5754 14.9266 19.5754 11.9285C19.5754 8.9304 22.0043 6.5 25.0004 6.5C27.9965 6.5 30.4254 8.9304 30.4254 11.9285C30.4254 14.9266 27.9965 17.357 25.0004 17.357Z" fill="white"/>
<path d="M29.65 38.847V27.9901H39.3519C39.986 27.9901 40.5 27.4703 40.5 26.8291V19.845C40.5 19.2038 39.986 18.6841 39.3519 18.6841H29.65C27.0819 18.6841 25 20.7673 25 23.3371C25 20.7673 22.9181 18.6841 20.35 18.6841H10.6481C10.014 18.6841 9.5 19.2038 9.5 19.845V26.8291C9.5 27.4703 10.014 27.9901 10.6482 27.9901H20.35V42.3391C20.35 42.9802 20.864 43.5 21.4982 43.5H25C27.5681 43.5 29.65 41.4168 29.65 38.847Z" fill="white"/>
<defs>
<linearGradient id="paint0_linear_9413_24405" x1="0" y1="0" x2="50" y2="50" gradientUnits="userSpaceOnUse">
<stop stop-color="#347CE3"/>
<stop offset="1" stop-color="#61A2FF"/>
</linearGradient>
</defs>
</svg>
