<svg width="32" height="32" viewBox="0 0 32 32" fill="none" xmlns="http://www.w3.org/2000/svg">
<rect width="32" height="32" rx="8" fill="#1284FF"/>
<path fill-rule="evenodd" clip-rule="evenodd" d="M16.0001 4.33583C14.4007 4.33583 13.1073 5.63388 13.1073 7.23128C13.1073 8.82869 14.4007 10.1267 16.0001 10.1267C17.5994 10.1267 18.8929 8.82869 18.8929 7.23128C18.8929 5.63388 17.5994 4.33583 16.0001 4.33583ZM12.0833 7.23128C12.0833 5.06206 13.8386 3.30664 16.0001 3.30664C18.1616 3.30664 19.9169 5.06206 19.9169 7.23128C19.9169 9.4005 18.1616 11.1559 16.0001 11.1559C13.8386 11.1559 12.0833 9.4005 12.0833 7.23128ZM7.29601 13.1045C7.01325 13.1045 6.78401 13.3349 6.78401 13.6191V17.4065C6.78401 17.6907 7.01325 17.9211 7.29601 17.9211H15.488V15.5128C15.488 14.1845 14.4123 13.1045 13.0816 13.1045H7.29601ZM16 13.7052C15.395 12.7265 14.3136 12.0753 13.0816 12.0753H7.29601C6.44769 12.0753 5.76001 12.7666 5.76001 13.6191V17.4065C5.76001 18.2591 6.44769 18.9503 7.29601 18.9503H12.5696V27.1495C12.5696 28.0021 13.2573 28.6933 14.1056 28.6933H16C17.8929 28.6933 19.4304 27.156 19.4304 25.2558V18.9503H24.704C25.5523 18.9503 26.24 18.2591 26.24 17.4065V13.6191C26.24 12.7665 25.5523 12.0753 24.704 12.0753H18.9184C17.6865 12.0753 16.605 12.7265 16 13.7052ZM18.4064 18.9503H13.5936V27.1495C13.5936 27.4337 13.8229 27.6641 14.1056 27.6641H16C17.3307 27.6641 18.4064 26.5842 18.4064 25.2558V18.9503ZM24.704 17.9211C24.9867 17.9211 25.216 17.6907 25.216 17.4065V13.6191C25.216 13.3349 24.9867 13.1045 24.704 13.1045H18.9184C17.5877 13.1045 16.512 14.1845 16.512 15.5128V17.9211H24.704Z" fill="white"/>
<path d="M6.34998 13.5499C6.34998 13.0528 6.75292 12.6499 7.24998 12.6499H13.9C14.9493 12.6499 15.8 13.5006 15.8 14.5499V17.3999C15.8 17.897 15.397 18.2999 14.9 18.2999H7.24997C6.75292 18.2999 6.34998 17.897 6.34998 17.3999V13.5499Z" fill="white"/>
<path d="M25.85 13.5499C25.85 13.0528 25.447 12.6499 24.95 12.6499H18.1C17.0506 12.6499 16.2 13.5006 16.2 14.5499V17.3999C16.2 17.897 16.6029 18.2999 17.1 18.2999H24.95C25.447 18.2999 25.85 17.897 25.85 17.3999V13.5499Z" fill="white"/>
<path d="M12.85 26.9C12.85 27.3971 13.2529 27.8 13.75 27.8H16.95C17.9993 27.8 18.85 26.9494 18.85 25.9V16.35C18.85 15.853 18.447 15.45 17.95 15.45H13.75C13.2529 15.45 12.85 15.853 12.85 16.35V26.9Z" fill="white"/>
<circle cx="16" cy="7.19995" r="3.5" fill="white"/>
</svg>
