<svg width="30" height="30" viewBox="0 0 30 30" fill="none" xmlns="http://www.w3.org/2000/svg">
<path d="M20.9264 5.27027H15H9.41718M20.9264 5.27027H22H26C27.6569 5.27027 29 6.61342 29 8.27027V11.2703M20.9264 5.27027V7.54054M20.9264 5.27027V3M9.41718 5.27027H4C2.34315 5.27027 1 6.61342 1 8.27027V11.2703M9.41718 5.27027V3M9.41718 5.27027V7.54054M1 11.2703V24C1 25.6569 2.34315 27 4 27H26C27.6569 27 29 25.6569 29 24V11.2703M1 11.2703H29M10.6196 18.5676L13.197 21.0006C13.5823 21.3644 14.1845 21.3644 14.5699 21.0006L20.2393 15.6486" stroke="white" stroke-width="1.6" stroke-linecap="round" stroke-linejoin="round"/>
</svg>
