<svg width="107" height="30" viewBox="0 0 107 30" fill="none" xmlns="http://www.w3.org/2000/svg">
<path fill-rule="evenodd" clip-rule="evenodd" d="M12.6792 1.37193C10.8131 1.37193 9.304 2.89756 9.304 4.77504C9.304 6.65254 10.8131 8.17814 12.6792 8.17814C14.5452 8.17814 16.0544 6.65254 16.0544 4.77504C16.0544 2.89756 14.5452 1.37193 12.6792 1.37193ZM8.10924 4.77504C8.10924 2.22549 10.1573 0.162292 12.6792 0.162292C15.2011 0.162292 17.2491 2.22549 17.2491 4.77504C17.2491 7.32458 15.2011 9.38781 12.6792 9.38781C10.1573 9.38781 8.10924 7.32458 8.10924 4.77504ZM2.52364 11.6781C2.19374 11.6781 1.92627 11.9488 1.92627 12.2829V16.7343C1.92627 17.0683 2.19374 17.3391 2.52364 17.3391H12.0817V14.5086C12.0817 12.9473 10.8266 11.6781 9.27403 11.6781H2.52364ZM12.6791 12.384C11.9732 11.2338 10.7114 10.4684 9.27403 10.4684H2.52364C1.53386 10.4684 0.731506 11.2808 0.731506 12.2829V16.7343C0.731506 17.7363 1.53386 18.5488 2.52364 18.5488H8.67665V28.1856C8.67665 29.1876 9.47903 30 10.4688 30H12.6791C14.8876 30 16.6815 28.1932 16.6815 25.9598V18.5488H22.8345C23.8243 18.5488 24.6267 17.7363 24.6267 16.7343V12.2829C24.6267 11.2808 23.8243 10.4684 22.8345 10.4684H16.0842C14.6468 10.4684 13.385 11.2338 12.6791 12.384ZM15.4868 18.5488H9.87141V28.1856C9.87141 28.5195 10.1389 28.7904 10.4688 28.7904H12.6791C14.2317 28.7904 15.4868 27.5211 15.4868 25.9598V18.5488ZM22.8345 17.3391C23.1644 17.3391 23.4319 17.0683 23.4319 16.7343V12.2829C23.4319 11.9489 23.1644 11.6781 22.8345 11.6781H16.0842C14.5316 11.6781 13.2765 12.9473 13.2765 14.5086V17.3391H22.8345Z" fill="#B0B0B0"/>
<path fill-rule="evenodd" clip-rule="evenodd" d="M12.6792 1.37193C10.8131 1.37193 9.304 2.89756 9.304 4.77504C9.304 6.65254 10.8131 8.17814 12.6792 8.17814C14.5452 8.17814 16.0544 6.65254 16.0544 4.77504C16.0544 2.89756 14.5452 1.37193 12.6792 1.37193ZM8.10924 4.77504C8.10924 2.22549 10.1573 0.162292 12.6792 0.162292C15.2011 0.162292 17.2491 2.22549 17.2491 4.77504C17.2491 7.32458 15.2011 9.38781 12.6792 9.38781C10.1573 9.38781 8.10924 7.32458 8.10924 4.77504ZM2.52364 11.6781C2.19374 11.6781 1.92627 11.9488 1.92627 12.2829V16.7343C1.92627 17.0683 2.19374 17.3391 2.52364 17.3391H12.0817V14.5086C12.0817 12.9473 10.8266 11.6781 9.27403 11.6781H2.52364ZM12.6791 12.384C11.9732 11.2338 10.7114 10.4684 9.27403 10.4684H2.52364C1.53386 10.4684 0.731506 11.2808 0.731506 12.2829V16.7343C0.731506 17.7363 1.53386 18.5488 2.52364 18.5488H8.67665V28.1856C8.67665 29.1876 9.47903 30 10.4688 30H12.6791C14.8876 30 16.6815 28.1932 16.6815 25.9598V18.5488H22.8345C23.8243 18.5488 24.6267 17.7363 24.6267 16.7343V12.2829C24.6267 11.2808 23.8243 10.4684 22.8345 10.4684H16.0842C14.6468 10.4684 13.385 11.2338 12.6791 12.384ZM15.4868 18.5488H9.87141V28.1856C9.87141 28.5195 10.1389 28.7904 10.4688 28.7904H12.6791C14.2317 28.7904 15.4868 27.5211 15.4868 25.9598V18.5488ZM22.8345 17.3391C23.1644 17.3391 23.4319 17.0683 23.4319 16.7343V12.2829C23.4319 11.9489 23.1644 11.6781 22.8345 11.6781H16.0842C14.5316 11.6781 13.2765 12.9473 13.2765 14.5086V17.3391H22.8345Z" fill="#B0B0B0"/>
<path d="M45.2445 16.1072H46.721C46.479 18.2665 45.7044 19.7829 44.3973 20.6565C43.0902 21.5135 41.2507 21.9421 38.8786 21.9421C37.4585 21.9421 36.2564 21.8103 35.272 21.5465C34.3038 21.2663 33.4566 20.7965 32.7305 20.1372C32.0044 19.4779 31.4638 18.5714 31.1088 17.4176C30.7699 16.2473 30.6005 14.7968 30.6005 13.0661C30.6005 11.286 30.778 9.8025 31.133 8.61576C31.5041 7.4125 32.0609 6.49768 32.8031 5.87134C33.5615 5.22853 34.4168 4.78348 35.3689 4.53624C36.3209 4.27251 37.4908 4.14065 38.8786 4.14065C41.2345 4.14065 43.058 4.56097 44.3489 5.40159C45.6398 6.24222 46.4144 7.74216 46.6726 9.90141H45.1961C45.067 8.99485 44.8249 8.24488 44.4699 7.6515C44.1149 7.04162 43.647 6.58834 43.066 6.29165C42.4851 5.9785 41.8719 5.77248 41.2265 5.67356C40.581 5.55819 39.7984 5.5005 38.8786 5.5005C37.9427 5.5005 37.152 5.54994 36.5065 5.64885C35.8772 5.74771 35.2559 5.95379 34.6427 6.26694C34.0295 6.56362 33.5454 6.98394 33.1904 7.52788C32.8354 8.07182 32.5449 8.80528 32.319 9.72836C32.1093 10.6514 32.0044 11.764 32.0044 13.0661C32.0044 14.3188 32.1093 15.3984 32.319 16.305C32.5288 17.2115 32.8112 17.9368 33.1662 18.4807C33.5212 19.0246 33.9972 19.4615 34.5943 19.7911C35.1913 20.1043 35.8207 20.3186 36.4823 20.4339C37.1439 20.5328 37.9427 20.5823 38.8786 20.5823C39.8145 20.5823 40.6133 20.5246 41.2749 20.4092C41.9365 20.2774 42.5578 20.0548 43.1387 19.7417C43.7196 19.4285 44.1795 18.9752 44.5184 18.3818C44.8734 17.772 45.1154 17.0138 45.2445 16.1072Z" fill="#B0B0B0"/>
<path d="M45.2445 16.1072H46.721C46.479 18.2665 45.7044 19.7829 44.3973 20.6565C43.0902 21.5135 41.2507 21.9421 38.8786 21.9421C37.4585 21.9421 36.2564 21.8103 35.272 21.5465C34.3038 21.2663 33.4566 20.7965 32.7305 20.1372C32.0044 19.4779 31.4638 18.5714 31.1088 17.4176C30.7699 16.2473 30.6005 14.7968 30.6005 13.0661C30.6005 11.286 30.778 9.8025 31.133 8.61576C31.5041 7.4125 32.0609 6.49768 32.8031 5.87134C33.5615 5.22853 34.4168 4.78348 35.3689 4.53624C36.3209 4.27251 37.4908 4.14065 38.8786 4.14065C41.2345 4.14065 43.058 4.56097 44.3489 5.40159C45.6398 6.24222 46.4144 7.74216 46.6726 9.90141H45.1961C45.067 8.99485 44.8249 8.24488 44.4699 7.6515C44.1149 7.04162 43.647 6.58834 43.066 6.29165C42.4851 5.9785 41.8719 5.77248 41.2265 5.67356C40.581 5.55819 39.7984 5.5005 38.8786 5.5005C37.9427 5.5005 37.152 5.54994 36.5065 5.64885C35.8772 5.74771 35.2559 5.95379 34.6427 6.26694C34.0295 6.56362 33.5454 6.98394 33.1904 7.52788C32.8354 8.07182 32.5449 8.80528 32.319 9.72836C32.1093 10.6514 32.0044 11.764 32.0044 13.0661C32.0044 14.3188 32.1093 15.3984 32.319 16.305C32.5288 17.2115 32.8112 17.9368 33.1662 18.4807C33.5212 19.0246 33.9972 19.4615 34.5943 19.7911C35.1913 20.1043 35.8207 20.3186 36.4823 20.4339C37.1439 20.5328 37.9427 20.5823 38.8786 20.5823C39.8145 20.5823 40.6133 20.5246 41.2749 20.4092C41.9365 20.2774 42.5578 20.0548 43.1387 19.7417C43.7196 19.4285 44.1795 18.9752 44.5184 18.3818C44.8734 17.772 45.1154 17.0138 45.2445 16.1072Z" fill="#B0B0B0"/>
<path d="M50.5893 4.51151V21.5712H49.258V4.51151H50.5893Z" fill="#B0B0B0"/>
<path d="M50.5893 4.51151V21.5712H49.258V4.51151H50.5893Z" fill="#B0B0B0"/>
<path d="M55.9796 26.0216L58.2791 21.2004L52.0822 9.20913H53.5349L58.9566 19.7911L63.9188 9.20913H65.3465L57.3591 26.0216H55.9796Z" fill="#B0B0B0"/>
<path d="M55.9796 26.0216L58.2791 21.2004L52.0822 9.20913H53.5349L58.9566 19.7911L63.9188 9.20913H65.3465L57.3591 26.0216H55.9796Z" fill="#B0B0B0"/>
<path d="M76.8048 17.5412H78.1359C77.7646 20.4751 75.7798 21.9421 72.1816 21.9421C70.0838 21.9421 68.5102 21.4477 67.4613 20.4587C66.4124 19.4532 65.8882 17.7885 65.8882 15.4644C65.8882 13.0744 66.4124 11.3766 67.4613 10.3712C68.5102 9.34922 70.0838 8.83825 72.1816 8.83825C73.8921 8.83825 75.2476 9.17616 76.2477 9.85193C77.2483 10.5278 77.8616 11.6321 78.0877 13.165H76.7321C76.4254 11.0717 74.9086 10.025 72.1816 10.025C70.5034 10.025 69.2524 10.4206 68.4295 11.2118C67.6231 11.9865 67.2193 13.404 67.2193 15.4644C67.2193 17.4588 67.6231 18.8433 68.4295 19.6181C69.2524 20.3762 70.5034 20.7554 72.1816 20.7554C73.5207 20.7554 74.5776 20.5164 75.3521 20.0384C76.1432 19.5439 76.6271 18.7115 76.8048 17.5412Z" fill="#B0B0B0"/>
<path d="M76.8048 17.5412H78.1359C77.7646 20.4751 75.7798 21.9421 72.1816 21.9421C70.0838 21.9421 68.5102 21.4477 67.4613 20.4587C66.4124 19.4532 65.8882 17.7885 65.8882 15.4644C65.8882 13.0744 66.4124 11.3766 67.4613 10.3712C68.5102 9.34922 70.0838 8.83825 72.1816 8.83825C73.8921 8.83825 75.2476 9.17616 76.2477 9.85193C77.2483 10.5278 77.8616 11.6321 78.0877 13.165H76.7321C76.4254 11.0717 74.9086 10.025 72.1816 10.025C70.5034 10.025 69.2524 10.4206 68.4295 11.2118C67.6231 11.9865 67.2193 13.404 67.2193 15.4644C67.2193 17.4588 67.6231 18.8433 68.4295 19.6181C69.2524 20.3762 70.5034 20.7554 72.1816 20.7554C73.5207 20.7554 74.5776 20.5164 75.3521 20.0384C76.1432 19.5439 76.6271 18.7115 76.8048 17.5412Z" fill="#B0B0B0"/>
<path d="M82.6596 19.6181C83.4825 20.3762 84.733 20.7554 86.4111 20.7554C88.0898 20.7554 89.3403 20.3762 90.1632 19.6181C90.9861 18.8433 91.3978 17.4588 91.3978 15.4644C91.3978 13.4205 90.9861 12.003 90.1632 11.2118C89.3403 10.4206 88.0898 10.025 86.4111 10.025C84.733 10.025 83.4825 10.4206 82.6596 11.2118C81.8526 11.9865 81.4494 13.404 81.4494 15.4644C81.4494 17.4588 81.8526 18.8433 82.6596 19.6181ZM86.4111 8.83825C88.5254 8.83825 90.0985 9.34922 91.1314 10.3712C92.1803 11.3766 92.7045 13.0744 92.7045 15.4644C92.7045 17.7885 92.1803 19.4532 91.1314 20.4587C90.0985 21.4477 88.5254 21.9421 86.4111 21.9421C84.3133 21.9421 82.7402 21.4477 81.6913 20.4587C80.6424 19.4532 80.1182 17.7885 80.1182 15.4644C80.1182 13.0744 80.6424 11.3766 81.6913 10.3712C82.7402 9.34922 84.3133 8.83825 86.4111 8.83825Z" fill="#B0B0B0"/>
<path d="M82.6596 19.6181C83.4825 20.3762 84.733 20.7554 86.4111 20.7554C88.0898 20.7554 89.3403 20.3762 90.1632 19.6181C90.9861 18.8433 91.3978 17.4588 91.3978 15.4644C91.3978 13.4205 90.9861 12.003 90.1632 11.2118C89.3403 10.4206 88.0898 10.025 86.4111 10.025C84.733 10.025 83.4825 10.4206 82.6596 11.2118C81.8526 11.9865 81.4494 13.404 81.4494 15.4644C81.4494 17.4588 81.8526 18.8433 82.6596 19.6181ZM86.4111 8.83825C88.5254 8.83825 90.0985 9.34922 91.1314 10.3712C92.1803 11.3766 92.7045 13.0744 92.7045 15.4644C92.7045 17.7885 92.1803 19.4532 91.1314 20.4587C90.0985 21.4477 88.5254 21.9421 86.4111 21.9421C84.3133 21.9421 82.7402 21.4477 81.6913 20.4587C80.6424 19.4532 80.1182 17.7885 80.1182 15.4644C80.1182 13.0744 80.6424 11.3766 81.6913 10.3712C82.7402 9.34922 84.3133 8.83825 86.4111 8.83825Z" fill="#B0B0B0"/>
<path d="M104.913 21.5712V13.0661C104.913 11.9453 104.598 11.1541 103.969 10.6926C103.356 10.2311 102.355 10.0003 100.968 10.0003C98.1596 10.0003 96.7154 11.2942 96.6348 13.882V21.5712H95.3036V9.20913H96.6348V11.558H96.8284C97.49 9.74482 99.0148 8.83825 101.403 8.83825C103.017 8.83825 104.227 9.1597 105.034 9.8025C105.857 10.4454 106.269 11.5332 106.269 13.0661V21.5712H104.913Z" fill="#B0B0B0"/>
<path d="M104.913 21.5712V13.0661C104.913 11.9453 104.598 11.1541 103.969 10.6926C103.356 10.2311 102.355 10.0003 100.968 10.0003C98.1596 10.0003 96.7154 11.2942 96.6348 13.882V21.5712H95.3036V9.20913H96.6348V11.558H96.8284C97.49 9.74482 99.0148 8.83825 101.403 8.83825C103.017 8.83825 104.227 9.1597 105.034 9.8025C105.857 10.4454 106.269 11.5332 106.269 13.0661V21.5712H104.913Z" fill="#B0B0B0"/>
</svg>
