<svg width="18" height="18" viewBox="0 0 18 18" fill="none" xmlns="http://www.w3.org/2000/svg">
<path fill-rule="evenodd" clip-rule="evenodd" d="M11.4388 2.09271C12.1288 1.40269 13.2476 1.40269 13.9376 2.09271L15.9075 4.06257C16.5975 4.75259 16.5975 5.87133 15.9075 6.56134L6.81926 15.6495C6.61162 15.8572 6.34111 15.9903 6.04991 16.0281L3.07646 16.414C2.21113 16.5263 1.47387 15.789 1.58618 14.9237L1.9721 11.9503C2.00989 11.6591 2.14299 11.3886 2.35062 11.1809L11.4388 2.09271ZM12.983 3.0473C12.8202 2.88449 12.5562 2.88449 12.3934 3.0473L11.1336 4.30715L13.693 6.8666L14.9529 5.60675C15.1157 5.44394 15.1157 5.17997 14.9529 5.01717L12.983 3.0473ZM12.7384 7.82119L10.179 5.26174L3.31 12.1307L2.92827 15.0719L5.86945 14.6902L12.7384 7.82119Z" fill="#FF813D"/>
</svg>
