<svg width="102" height="112" viewBox="0 0 102 112" fill="none" xmlns="http://www.w3.org/2000/svg">
<path d="M1 24.7144C1 20.2961 4.58172 16.7144 9 16.7144H48.1106C50.2893 16.7144 52.3738 17.603 53.8825 19.1749L81.2719 47.7135C82.7016 49.2033 83.5 51.1881 83.5 53.253V103C83.5 107.418 79.9183 111 75.5 111H9C4.58172 111 1 107.418 1 103V24.7144Z" stroke="#C7CDD6" stroke-width="2"/>
<path d="M19.75 1H57.6625C59.7983 1 61.8454 1.85404 63.348 3.37193L98.6855 39.07C100.168 40.5679 101 42.5904 101 44.6981V90.7959" stroke="#C7CDD6" stroke-width="2" stroke-linecap="round"/>
<path d="M45.9995 16.7144V44.6327C45.9995 49.051 49.5813 52.6327 53.9995 52.6327H80.9995" stroke="#C7CDD6" stroke-width="2"/>
</svg>
