<svg width="954" height="208" viewBox="0 0 954 208" fill="none" xmlns="http://www.w3.org/2000/svg">
<path d="M286.979 162C269.659 162 254.424 155.928 244 143.945L256.509 129.085C264.367 139.95 274.791 144.105 287.299 144.105C301.572 144.105 309.911 138.193 309.911 127.488C309.911 116.942 302.213 110.391 285.696 110.391H268.857V93.7741H284.252C297.402 93.7741 304.619 88.022 304.619 77.7961C304.619 68.8485 298.525 63.8953 286.016 63.8953C276.234 63.8953 267.093 67.0909 258.914 73.6419L248.33 58.7824C256.188 51.2727 272.866 46 288.422 46C310.873 46 324.344 56.5455 324.344 74.1212C324.344 84.9862 319.052 95.5317 307.506 100.006V100.325C320.976 103.68 330.117 112.149 330.117 127.807C330.117 148.099 314.401 162 286.979 162Z" fill="#FF813D"/>
<path d="M385.486 162C360.789 162 344.431 144.744 344.431 121.895C344.431 98.8871 360.789 81.6309 385.486 81.6309C409.541 81.6309 426.54 97.9284 426.54 121.895C426.54 145.543 409.541 162 385.486 162ZM385.486 145.702C398.155 145.702 408.258 135.956 408.258 121.895C408.258 107.515 398.315 97.7686 385.486 97.7686C371.854 97.7686 362.713 108.314 362.713 121.895C362.713 135.157 372.015 145.702 385.486 145.702Z" fill="#FF813D"/>
<path d="M481.643 162C456.947 162 440.589 144.744 440.589 121.895C440.589 98.8871 456.947 81.6309 481.643 81.6309C505.699 81.6309 522.698 97.9284 522.698 121.895C522.698 145.543 505.699 162 481.643 162ZM481.643 145.702C494.313 145.702 504.416 135.956 504.416 121.895C504.416 107.515 494.473 97.7686 481.643 97.7686C468.012 97.7686 458.871 108.314 458.871 121.895C458.871 135.157 468.173 145.702 481.643 145.702Z" fill="#FF813D"/>
<path d="M576.679 162C553.586 162 536.747 145.702 536.747 121.895C536.747 97.9284 553.586 81.6309 577.32 81.6309C589.508 81.6309 602.338 86.584 610.196 96.1708L598.008 106.716C593.517 101.444 586.782 97.7686 578.282 97.7686C564.331 97.7686 555.029 107.515 555.029 121.736C555.029 136.116 564.491 145.702 578.282 145.702C586.942 145.702 593.999 141.868 598.008 136.595L610.356 147.46C603.781 155.928 593.678 162 576.679 162Z" fill="#FF813D"/>
<path d="M644.07 160.722V98.4077H619.694V82.7493H686.407V98.4077H662.031V160.722H644.07Z" fill="#FF813D"/>
<path d="M702.705 160.722V82.7493H720.666V135.157H720.987L757.391 82.7493H774.39V160.722H756.428V109.912H756.108L720.025 160.722H702.705Z" fill="#FF813D"/>
<path d="M809.794 82.7493H866.404V160.722H848.443V98.4077H827.275C826.793 110.072 826.152 120.937 824.869 130.204C822.143 149.218 814.605 161.521 798.088 161.521C795.041 161.521 791.513 161.041 789.428 160.242L790.55 144.904C791.673 145.063 792.635 145.223 794.399 145.223C802.578 145.223 806.747 136.595 808.191 124.292C809.634 112.309 809.794 94.0937 809.794 82.7493Z" fill="#FF813D"/>
<path d="M889.853 160.722V82.7493H907.814V106.716H921.926C945.982 106.716 954 117.741 954 133.719C954 149.377 945.34 160.722 921.125 160.722H889.853ZM907.814 145.543H921.285C930.747 145.543 935.718 141.708 935.718 133.879C935.718 125.41 930.747 121.576 921.285 121.576H907.814V145.543Z" fill="#FF813D"/>
<path fill-rule="evenodd" clip-rule="evenodd" d="M15.5944 0.105354C33.4812 2.91038 52.1913 11.3401 66.3014 22.6947C75.6549 19.7669 85.6842 18.1835 96.0976 18.1835C106.581 18.1835 116.675 19.7882 126.082 22.7535C140.529 11.59 158.373 2.84636 176.509 0.118448C180.37 -0.449632 184.385 1.50023 186.148 5.02301C193.223 21.7267 193.463 41.6444 189.112 59.037L189.045 59.3066C187.879 63.9737 186.372 70.0057 181.535 72.0349C185.13 80.8678 187.108 90.4475 187.108 100.505C187.108 125.716 176.749 151.655 167.461 174.911L166.521 177.265C160.881 191.405 148.261 201.144 133.639 203.858L112.979 207.693C106.608 208.875 100.25 206.579 96.0976 201.95C91.9457 206.579 85.5877 208.875 79.217 207.693L58.5563 203.858C43.9351 201.144 31.3153 191.405 25.6749 177.265L24.7354 174.911C15.4471 151.655 5.08746 125.716 5.08746 100.505C5.08746 90.4475 7.06539 80.8678 10.6615 72.0349C5.81937 70.0036 4.35137 64.1182 3.18407 59.438L3.08395 59.037C-1.07331 42.421 -1.87239 20.883 6.04826 5.02301C7.80167 1.51905 11.7223 -0.49569 15.5944 0.105354ZM46.8134 31.2835C36.5327 37.2867 27.6098 45.1484 20.6838 54.3887C17.9716 43.3244 17.9411 31.0199 20.331 19.8894C29.5545 22.5516 38.5806 26.3261 46.8134 31.2835ZM171.512 54.3888C164.631 45.2088 155.78 37.3893 145.584 31.4013C153.766 26.3728 162.574 22.3442 171.839 19.7713C174.261 30.9332 174.233 43.2886 171.512 54.3888ZM67.4624 41.5268C76.228 38.2159 85.9017 36.3708 96.0976 36.3708C106.294 36.3708 115.968 38.2159 124.733 41.5268C151.208 51.5268 168.906 74.5482 168.906 100.505C168.906 122.466 159.706 145.382 151.489 165.847C150.857 167.422 150.229 168.986 149.613 170.531C146.418 178.539 139.155 184.336 130.315 185.976L109.655 189.811L104.398 178.138C102.928 174.874 99.6789 172.775 96.0976 172.775C92.5163 172.775 89.2682 174.874 87.7984 178.138L82.5407 189.811L61.8807 185.976C53.0413 184.336 45.7779 178.539 42.5835 170.531C41.9679 168.988 41.3418 167.428 40.7099 165.854C32.4936 145.389 23.2896 122.466 23.2896 100.505C23.2896 74.5482 40.9882 51.5268 67.4624 41.5268ZM82.446 136.4C78.9986 136.4 75.8475 138.346 74.3058 141.427C72.7642 144.508 73.0969 148.195 75.1652 150.95L88.8168 169.138C90.536 171.427 93.2326 172.775 96.0976 172.775C98.9626 172.775 101.659 171.427 103.378 169.138L117.03 150.95C119.099 148.195 119.431 144.508 117.889 141.427C116.347 138.346 113.197 136.4 109.749 136.4H82.446ZM74.4493 92.0353C74.4493 99.5694 68.3373 105.676 60.7977 105.676C53.2581 105.676 47.1461 99.5694 47.1461 92.0353C47.1461 84.5021 53.2581 78.3953 60.7977 78.3953C68.3373 78.3953 74.4493 84.5021 74.4493 92.0353ZM132.502 104.573C140.041 104.573 146.153 98.4663 146.153 90.9322C146.153 83.399 140.041 77.2921 132.502 77.2921C124.963 77.2921 118.85 83.399 118.85 90.9322C118.85 98.4663 124.963 104.573 132.502 104.573Z" fill="#FF813D"/>
</svg>
