<svg width="88" height="82" viewBox="0 0 88 82" fill="none" xmlns="http://www.w3.org/2000/svg">
<path d="M20.8571 81H5C2.79087 81 1 79.2092 1 77V27.8572C1 25.648 2.79086 23.8572 5 23.8572H20.8571" stroke="#4F4F4F" stroke-width="2"/>
<path d="M47.1426 81H64.4283C65.2782 81 66.0662 80.7349 66.7141 80.2829M47.1426 33H64.4283C64.6224 33 64.8133 33.0138 65 33.0405M65 33.0405V77C65 78.3592 65.6779 79.5601 66.7141 80.2829M65 33.0405V24.4286C65 22.2195 66.7909 20.4286 69 20.4286H82.7143C84.9234 20.4286 86.7143 22.2194 86.7143 24.4286V77C86.7143 79.2092 84.9234 81 82.7143 81H69C68.1501 81 67.3621 80.7349 66.7141 80.2829" stroke="#4F4F4F" stroke-width="2"/>
<rect x="21" y="1" width="26.2857" height="80" rx="4" stroke="#4F4F4F" stroke-width="2" stroke-linecap="round" stroke-dasharray="4 6"/>
<circle cx="47" cy="33" r="3" fill="#4F4F4F"/>
</svg>
